<svg xmlns="http://www.w3.org/2000/svg" width="249.28" height="48.004" viewBox="0 0 249.28 48.004">
    <defs>
        <style>
            .cls-1{fill:#10e5d5}
        </style>
    </defs>
    <g id="logo" transform="translate(-80.5 -222.204)">
        <g id="그룹_1" transform="translate(80.5 222.204)">
            <path id="패스_72" d="M88.015 267.907a15.481 15.481 0 0 1-3.783-.383 4.682 4.682 0 0 1-2.3-1.252 4.755 4.755 0 0 1-1.125-2.352 18.572 18.572 0 0 1-.307-3.682V228.9a4.664 4.664 0 0 1 1.406-3.783 5.348 5.348 0 0 1 3.553-1.176 5.051 5.051 0 0 1 3.476 1.176 4.811 4.811 0 0 1 1.33 3.783v29.139q0 .87.281 1.1a1.959 1.959 0 0 0 1.151.23h7.618a5.334 5.334 0 0 1 2.07.357 3.527 3.527 0 0 1 1.354.972 3.6 3.6 0 0 1 .716 1.381 6.156 6.156 0 0 1 .2 1.585 5.51 5.51 0 0 1-.229 1.584 3.847 3.847 0 0 1-.716 1.355 3.423 3.423 0 0 1-1.329.945 5.321 5.321 0 0 1-2.07.357zm17.535-41.357a3.9 3.9 0 0 1 1.381-3.247 4.947 4.947 0 0 1 3.17-1.1 5.18 5.18 0 0 1 1.687.281 4.633 4.633 0 0 1 1.483.844 4.1 4.1 0 0 1 1.047 1.355 4.242 4.242 0 0 1 .383 1.866v14.416h2.71V226.55a3.9 3.9 0 0 1 1.38-3.247 4.948 4.948 0 0 1 3.17-1.1 5.165 5.165 0 0 1 1.686.281 4.61 4.61 0 0 1 1.483.844 4.093 4.093 0 0 1 1.048 1.355 4.242 4.242 0 0 1 .384 1.866v43.658h-9.151V249.35H114.7v20.858h-9.15z" transform="translate(-80.5 -222.204)"/>
        </g>
        <g id="그룹_2" transform="translate(131.521 222.204)">
            <path id="패스_73" d="M152.34 234.013a11.635 11.635 0 0 1 1.048-5.189 9.152 9.152 0 0 1 2.965-3.477 12.846 12.846 0 0 1 4.6-1.968 29.247 29.247 0 0 1 11.912 0 12.846 12.846 0 0 1 4.6 1.968 9.158 9.158 0 0 1 2.965 3.477 11.635 11.635 0 0 1 1.048 5.189v1.38a11.634 11.634 0 0 1-1.048 5.189 9.145 9.145 0 0 1-2.965 3.476 12.846 12.846 0 0 1-4.6 1.968 29.213 29.213 0 0 1-11.912 0 12.846 12.846 0 0 1-4.6-1.968 9.139 9.139 0 0 1-2.965-3.476 11.634 11.634 0 0 1-1.048-5.189zm9.253 36.195a8.014 8.014 0 0 1-3.092-.562 6.539 6.539 0 0 1-2.275-1.533 6.765 6.765 0 0 1-1.406-2.224 7.2 7.2 0 0 1-.485-2.633v-.613a5.546 5.546 0 0 1 1.866-4.4 7.936 7.936 0 0 1 5.393-1.637h25.715v-1.326a1 1 0 0 0-.153-.639.889.889 0 0 0-.664-.178h-28.784a2.465 2.465 0 0 1-2.147-.921 3.486 3.486 0 0 1-.665-2.1 3.447 3.447 0 0 1 .665-2.018 2.437 2.437 0 0 1 2.147-.947h33.741q3.424 0 4.831 1.176t1.405 4.192v8.179h-31.44a1.144 1.144 0 0 0-.842.282.936.936 0 0 0-.282.69v.154a.934.934 0 0 0 .282.69 1.138 1.138 0 0 0 .842.282H196.1a2.538 2.538 0 0 1 2.224.97 3.626 3.626 0 0 1 .691 2.148 3.456 3.456 0 0 1-.665 2.018 2.56 2.56 0 0 1-2.25.946zm.817-34.456a3.206 3.206 0 0 0 1.227 2.812 6.6 6.6 0 0 0 6.544 0 3.206 3.206 0 0 0 1.227-2.812v-2.1a3.22 3.22 0 0 0-1.227-2.785 6.43 6.43 0 0 0-6.544 0 3.22 3.22 0 0 0-1.227 2.785zm24.949-8.488a4.6 4.6 0 0 1 1.56-3.782 5.52 5.52 0 0 1 3.6-1.278 5.764 5.764 0 0 1 1.917.332 4.944 4.944 0 0 1 1.662.972 4.757 4.757 0 0 1 1.151 1.584 5.165 5.165 0 0 1 .434 2.173v19.581h-10.324z" transform="translate(-152.34 -222.204)"/>
        </g>
        <g id="그룹_3" transform="translate(181.57 222.204)">
            <path id="패스_74" d="M252.872 259.727a4.967 4.967 0 0 1 1.994.359 3.535 3.535 0 0 1 1.329.972 3.889 3.889 0 0 1 .742 1.38 5.333 5.333 0 0 1 .229 1.533 5.51 5.51 0 0 1-.229 1.585 3.478 3.478 0 0 1-.767 1.354 3.954 3.954 0 0 1-1.355.946 4.822 4.822 0 0 1-1.943.359h-25.714a3.967 3.967 0 0 1-3.323-1.3 4.637 4.637 0 0 1-1.023-2.94 5.335 5.335 0 0 1 .23-1.533 3.675 3.675 0 0 1 .767-1.38 3.78 3.78 0 0 1 1.354-.972 4.965 4.965 0 0 1 1.994-.359zm-28.833-23.72a13.489 13.489 0 0 1 1.151-5.777 10.959 10.959 0 0 1 3.169-4.039 13.552 13.552 0 0 1 4.729-2.351 22.816 22.816 0 0 1 11.732 0 13.267 13.267 0 0 1 4.729 2.351 11.062 11.062 0 0 1 3.144 4.039 13.489 13.489 0 0 1 1.151 5.777v4.907a13.483 13.483 0 0 1-1.151 5.776 11.032 11.032 0 0 1-3.144 4.039 13.232 13.232 0 0 1-4.729 2.351 22.817 22.817 0 0 1-11.732 0 13.516 13.516 0 0 1-4.729-2.351 10.93 10.93 0 0 1-3.169-4.039 13.483 13.483 0 0 1-1.151-5.776zm10.02 5.265a4.887 4.887 0 0 0 .408 2.1 3.776 3.776 0 0 0 1.1 1.406 4.6 4.6 0 0 0 1.584.793 6.551 6.551 0 0 0 1.815.256 6.284 6.284 0 0 0 1.789-.256 4.637 4.637 0 0 0 1.56-.793 4.03 4.03 0 0 0 1.124-1.406 4.65 4.65 0 0 0 .434-2.1v-5.623a4.657 4.657 0 0 0-.434-2.1 4.05 4.05 0 0 0-1.124-1.406 4.7 4.7 0 0 0-1.56-.793 6.333 6.333 0 0 0-1.789-.256 6.6 6.6 0 0 0-1.815.256 4.662 4.662 0 0 0-1.584.793 3.794 3.794 0 0 0-1.1 1.406 4.894 4.894 0 0 0-.408 2.1zm24.947 28.936v-42.944a4.641 4.641 0 0 1 1.534-3.782 5.647 5.647 0 0 1 7.157 0 4.641 4.641 0 0 1 1.534 3.782v42.944z" transform="translate(-222.812 -222.204)"/>
        </g>
        <g id="그룹_4" transform="translate(266.797 222.204)">
            <path id="패스_75" d="M342.817 227.163a4.508 4.508 0 0 1 1.533-3.707 5.421 5.421 0 0 1 3.528-1.252 5.542 5.542 0 0 1 1.891.332 4.908 4.908 0 0 1 1.611.947 4.7 4.7 0 0 1 1.124 1.533 4.979 4.979 0 0 1 .435 2.147V240.1h1.687a4.106 4.106 0 0 1 1.943.408 3.534 3.534 0 0 1 1.226 1.048 4.242 4.242 0 0 1 .664 1.43 6.03 6.03 0 0 1 0 3.12 4.229 4.229 0 0 1-.664 1.43 3.468 3.468 0 0 1-1.253 1.049 4.145 4.145 0 0 1-1.917.408h-1.687v21.216h-10.121z" transform="translate(-342.817 -222.204)"/>
        </g>
        <g id="그룹_5" transform="translate(284.179 222.204)">
            <path id="패스_76" d="M367.291 234.525a12.276 12.276 0 0 1 1.048-5.317 9.518 9.518 0 0 1 2.94-3.6 12.4 12.4 0 0 1 4.525-2.045 24.617 24.617 0 0 1 5.8-.639 18.957 18.957 0 0 1 9.2 2.02 9.093 9.093 0 0 1 4.6 6.518h7.055v-4.295a4.507 4.507 0 0 1 1.541-3.711 5.418 5.418 0 0 1 3.527-1.252 5.552 5.552 0 0 1 1.892.332 5.227 5.227 0 0 1 1.636.947 4.534 4.534 0 0 1 1.151 1.533 4.989 4.989 0 0 1 .434 2.147v20.96h-10.176v-8.691h-7.106a9.121 9.121 0 0 1-4.677 6.339 19.168 19.168 0 0 1-9.074 1.942 25.089 25.089 0 0 1-5.88-.639 12.105 12.105 0 0 1-4.524-2.045 9.366 9.366 0 0 1-2.888-3.6 12.538 12.538 0 0 1-1.023-5.317zm9.612 35.683a12.972 12.972 0 0 1-3.554-.408 4.832 4.832 0 0 1-2.224-1.278 4.9 4.9 0 0 1-1.151-2.3 15.6 15.6 0 0 1-.332-3.477v-8.128a4.426 4.426 0 0 1 1.509-3.758 5.848 5.848 0 0 1 3.655-1.15 5.75 5.75 0 0 1 3.349.972 4.164 4.164 0 0 1 1.661 3.118h22.9a4.125 4.125 0 0 1 1.687-3.118 5.957 5.957 0 0 1 3.426-.972 5.635 5.635 0 0 1 3.6 1.15 4.5 4.5 0 0 1 1.457 3.758v15.592zm.357-33.587a3.449 3.449 0 0 0 1.2 2.888 5.7 5.7 0 0 0 6.289 0 3.451 3.451 0 0 0 1.2-2.888v-2.607a3.454 3.454 0 0 0-1.2-2.888 5.7 5.7 0 0 0-6.289 0 3.452 3.452 0 0 0-1.2 2.888zm25.407 26.789v-3.067h-22.8v1.789q0 .87.256 1.074a2.015 2.015 0 0 0 1.125.2z" transform="translate(-367.291 -222.204)"/>
        </g>
        <g id="그룹_6" transform="translate(233.221 237.446)">
            <path id="패스_77" d="M320.067 276.427a5.326 5.326 0 0 1-5.326-5.327v-12.867c0-3.123-2.743-3.915-4.274-3.915-2.011 0-4.106 1.155-4.273 3.486-.237 3.316 0 13.3 0 13.3a5.326 5.326 0 1 1-10.653 0v-13.611c0-.13 0-.26.013-.389a15.6 15.6 0 0 1 2.271-6.679c2.716-4.359 7.336-6.76 13.011-6.76a14.061 14.061 0 0 1 10.371 4.01 15.822 15.822 0 0 1 4.186 10.614V271.1a5.326 5.326 0 0 1-5.326 5.327z" class="cls-1" transform="translate(-295.54 -243.665)"/>
        </g>
        <g id="그룹_7" transform="translate(242.821 223.112)">
            <circle id="타원_1" cx="5.326" cy="5.326" r="5.326" class="cls-1"/>
        </g>
    </g>
</svg>
